<svg data-v-fde0c5aa="" xmlns="http://www.w3.org/2000/svg" viewBox="0 0 300 300" class="iconLeft"><!----><defs data-v-fde0c5aa=""><!----></defs><rect data-v-fde0c5aa="" fill="transparent" x="0" y="0" width="300px" height="300px" class="logo-background-square"></rect><defs data-v-fde0c5aa=""><!----></defs><g data-v-fde0c5aa="" id="317bd204-8e08-4468-bd83-512f774478ad" fill="#000000" transform="matrix(3.48736665179255,0,0,3.48736665179255,109.24114123939782,120.51431397797946)"><path d="M9.58 11.31L9.58 11.31Q9.65 11.49 9.65 11.62L9.65 11.62L9.65 11.62Q9.65 11.91 9.44 12.12L9.44 12.12L9.44 12.12Q9.23 12.33 8.92 12.33L8.92 12.33L8.92 12.33Q8.71 12.33 8.52 12.21L8.52 12.21L8.52 12.21Q8.33 12.10 8.25 11.89L8.25 11.89L7.46 9.93L2.44 9.93L1.64 11.89L1.64 11.89Q1.54 12.10 1.36 12.21L1.36 12.21L1.36 12.21Q1.18 12.33 0.97 12.33L0.97 12.33L0.97 12.33Q0.66 12.33 0.46 12.12L0.46 12.12L0.46 12.12Q0.25 11.90 0.25 11.61L0.25 11.61L0.25 11.61Q0.25 11.47 0.32 11.28L0.32 11.28L4.26 1.89L4.26 1.89Q4.47 1.40 4.94 1.40L4.94 1.40L4.94 1.40Q5.45 1.40 5.63 1.89L5.63 1.89L9.58 11.31ZM2.93 8.72L6.97 8.72L4.97 3.74L2.93 8.72ZM14.85 4.59L14.85 4.59Q15.60 4.59 16.02 4.82L16.02 4.82L16.02 4.82Q16.44 5.04 16.44 5.38L16.44 5.38L16.44 5.38Q16.44 5.47 16.42 5.52L16.42 5.52L16.42 5.52Q16.30 5.96 15.86 5.96L15.86 5.96L15.86 5.96Q15.79 5.96 15.65 5.94L15.65 5.94L15.65 5.94Q15.09 5.84 14.74 5.84L14.74 5.84L14.74 5.84Q13.73 5.84 13.12 6.30L13.12 6.30L13.12 6.30Q12.50 6.76 12.50 7.55L12.50 7.55L12.50 11.63L12.50 11.63Q12.50 11.97 12.33 12.15L12.33 12.15L12.33 12.15Q12.15 12.33 11.80 12.33L11.80 12.33L11.80 12.33Q11.47 12.33 11.28 12.16L11.28 12.16L11.28 12.16Q11.10 11.98 11.10 11.63L11.10 11.63L11.10 5.38L11.10 5.38Q11.10 5.04 11.28 4.86L11.28 4.86L11.28 4.86Q11.47 4.68 11.80 4.68L11.80 4.68L11.80 4.68Q12.50 4.68 12.50 5.38L12.50 5.38L12.50 5.64L12.50 5.64Q12.92 5.15 13.54 4.87L13.54 4.87L13.54 4.87Q14.15 4.59 14.85 4.59L14.85 4.59ZM21.38 4.62L21.38 4.62Q22.48 4.62 23.36 5.12L23.36 5.12L23.36 5.12Q24.23 5.61 24.73 6.50L24.73 6.50L24.73 6.50Q25.23 7.38 25.23 8.51L25.23 8.51L25.23 11.54L25.23 11.54Q25.23 12.64 24.74 13.55L24.74 13.55L24.74 13.55Q24.25 14.46 23.36 14.99L23.36 14.99L23.36 14.99Q22.47 15.51 21.35 15.51L21.35 15.51L21.35 15.51Q20.34 15.51 19.47 15.11L19.47 15.11L19.47 15.11Q18.61 14.71 18.02 13.97L18.02 13.97L18.02 13.97Q17.86 13.78 17.86 13.58L17.86 13.58L17.86 13.58Q17.86 13.29 18.16 13.08L18.16 13.08L18.16 13.08Q18.35 12.95 18.55 12.95L18.55 12.95L18.55 12.95Q18.90 12.95 19.12 13.24L19.12 13.24L19.12 13.24Q19.50 13.73 20.08 13.99L20.08 13.99L20.08 13.99Q20.65 14.25 21.38 14.25L21.38 14.25L21.38 14.25Q22.06 14.25 22.62 13.92L22.62 13.92L22.62 13.92Q23.18 13.59 23.52 12.96L23.52 12.96L23.52 12.96Q23.86 12.32 23.86 11.44L23.86 11.44L23.86 10.75L23.86 10.75Q23.42 11.52 22.71 11.96L22.71 11.96L22.71 11.96Q21.99 12.39 21.10 12.39L21.10 12.39L21.10 12.39Q20.06 12.39 19.24 11.89L19.24 11.89L19.24 11.89Q18.42 11.40 17.97 10.51L17.97 10.51L17.97 10.51Q17.51 9.63 17.51 8.51L17.51 8.51L17.51 8.51Q17.51 7.38 18.00 6.50L18.00 6.50L18.00 6.50Q18.49 5.61 19.38 5.12L19.38 5.12L19.38 5.12Q20.26 4.62 21.38 4.62L21.38 4.62ZM21.38 11.13L21.38 11.13Q22.09 11.13 22.66 10.79L22.66 10.79L22.66 10.79Q23.23 10.46 23.54 9.86L23.54 9.86L23.54 9.86Q23.86 9.27 23.86 8.51L23.86 8.51L23.86 8.51Q23.86 7.76 23.54 7.15L23.54 7.15L23.54 7.15Q23.23 6.55 22.66 6.22L22.66 6.22L22.66 6.22Q22.09 5.88 21.38 5.88L21.38 5.88L21.38 5.88Q20.66 5.88 20.10 6.22L20.10 6.22L20.10 6.22Q19.53 6.55 19.21 7.15L19.21 7.15L19.21 7.15Q18.89 7.76 18.89 8.51L18.89 8.51L18.89 8.51Q18.89 9.27 19.21 9.86L19.21 9.86L19.21 9.86Q19.53 10.46 20.10 10.79L20.10 10.79L20.10 10.79Q20.66 11.13 21.38 11.13L21.38 11.13ZM34.23 8.39L34.23 8.39Q34.23 8.65 34.05 8.83L34.05 8.83L34.05 8.83Q33.87 9.00 33.59 9.00L33.59 9.00L28.27 9.00L28.27 9.00Q28.42 9.98 29.16 10.58L29.16 10.58L29.16 10.58Q29.89 11.19 30.95 11.19L30.95 11.19L30.95 11.19Q31.37 11.19 31.83 11.03L31.83 11.03L31.83 11.03Q32.28 10.88 32.58 10.65L32.58 10.65L32.58 10.65Q32.77 10.50 33.04 10.50L33.04 10.50L33.04 10.50Q33.31 10.50 33.46 10.64L33.46 10.64L33.46 10.64Q33.71 10.85 33.71 11.12L33.71 11.12L33.71 11.12Q33.71 11.37 33.49 11.54L33.49 11.54L33.49 11.54Q33.01 11.91 32.31 12.15L32.31 12.15L32.31 12.15Q31.60 12.39 30.95 12.39L30.95 12.39L30.95 12.39Q29.81 12.39 28.90 11.89L28.90 11.89L28.90 11.89Q27.99 11.40 27.48 10.51L27.48 10.51L27.48 10.51Q26.96 9.63 26.96 8.51L26.96 8.51L26.96 8.51Q26.96 7.39 27.45 6.50L27.45 6.50L27.45 6.50Q27.93 5.61 28.79 5.12L28.79 5.12L28.79 5.12Q29.65 4.62 30.74 4.62L30.74 4.62L30.74 4.62Q31.82 4.62 32.61 5.10L32.61 5.10L32.61 5.10Q33.39 5.57 33.81 6.43L33.81 6.43L33.81 6.43Q34.23 7.28 34.23 8.39L34.23 8.39ZM30.74 5.82L30.74 5.82Q29.72 5.82 29.09 6.38L29.09 6.38L29.09 6.38Q28.45 6.94 28.28 7.88L28.28 7.88L32.94 7.88L32.94 7.88Q32.82 6.94 32.24 6.38L32.24 6.38L32.24 6.38Q31.67 5.82 30.74 5.82L30.74 5.82ZM39.86 4.61L39.86 4.61Q40.82 4.61 41.59 5.03L41.59 5.03L41.59 5.03Q42.36 5.45 42.80 6.25L42.80 6.25L42.80 6.25Q43.23 7.06 43.23 8.19L43.23 8.19L43.23 11.63L43.23 11.63Q43.23 11.94 43.03 12.14L43.03 12.14L43.03 12.14Q42.83 12.35 42.52 12.35L42.52 12.35L42.52 12.35Q42.21 12.35 42.01 12.14L42.01 12.14L42.01 12.14Q41.80 11.94 41.80 11.63L41.80 11.63L41.80 8.19L41.80 8.19Q41.80 7.06 41.20 6.47L41.20 6.47L41.20 6.47Q40.59 5.89 39.58 5.89L39.58 5.89L39.58 5.89Q38.99 5.89 38.51 6.13L38.51 6.13L38.51 6.13Q38.02 6.37 37.75 6.78L37.75 6.78L37.75 6.78Q37.48 7.18 37.48 7.69L37.48 7.69L37.48 11.63L37.48 11.63Q37.48 11.94 37.28 12.14L37.28 12.14L37.28 12.14Q37.09 12.35 36.76 12.35L36.76 12.35L36.76 12.35Q36.46 12.35 36.25 12.14L36.25 12.14L36.25 12.14Q36.05 11.94 36.05 11.63L36.05 11.63L36.05 5.39L36.05 5.39Q36.05 5.07 36.25 4.87L36.25 4.87L36.25 4.87Q36.46 4.68 36.76 4.68L36.76 4.68L36.76 4.68Q37.09 4.68 37.28 4.87L37.28 4.87L37.28 4.87Q37.48 5.07 37.48 5.39L37.48 5.39L37.48 5.54L37.48 5.54Q37.93 5.10 38.54 4.85L38.54 4.85L38.54 4.85Q39.16 4.61 39.86 4.61L39.86 4.61Z"></path></g><defs data-v-fde0c5aa=""><linearGradient data-v-fde0c5aa="" gradientTransform="rotate(25)" id="d5a3c70c-5a82-4d4a-9121-95c3744168b2" x1="0%" y1="0%" x2="100%" y2="0%"><stop data-v-fde0c5aa="" offset="0%" stop-color="#288B58" stop-opacity="1"></stop><stop data-v-fde0c5aa="" offset="100%" stop-color="#1522F1" stop-opacity="1"></stop></linearGradient></defs><g data-v-fde0c5aa="" id="327d2936-8e22-4eac-b6b4-196366ee41a0" stroke="none" fill="url(#d5a3c70c-5a82-4d4a-9121-95c3744168b2)" transform="matrix(0.7546043542948274,0,0,0.7546043542948274,30.202971817876787,112.34033645672075)"><g clip-rule="evenodd"><path d="M12.983 10.59l17.018 88.223-5.872-59.049 29.021-1.892-.054-9.883L64.549 1 53.622 18.977z"></path><path d="M59.389 54.548l5.16-53.541-8.74 39.716-19.612 1.045 1.57 20.462-7.766 36.583 12.057-39.899z"></path><path d="M62.8 67.182l.549-10.453-15.979 3.755-.032 11.797-17.337 26.532 21.68-27.616zM65.711 62.394l14.841-4.731 1.509-12.532-15.899 2.095zM72.07 44.502l10.988-1.417 1.581-10.278-8.079-.373L64.549 1l8.43 30.967z"></path><path d="M87.413 31.294l1.256-9.506-9.544-2.694L64.549 1l14.483 22.437-.422 7z"></path></g></g><!----></svg>